/* XPM */
static char *f20db60d5a334bccf96e04f93c314734[] = {
/* columns rows colors chars-per-pixel */
"48 48 2 1 ",
"  c #2D2D2D",
". c None",
/* pixels */
"................................................",
"................................................",
"................................................",
"................................................",
"................................................",
"................................................",
"................................................",
"................................................",
"................................................",
"................................................",
"................................................",
"................................................",
"................................................",
"................................................",
"................................................",
"................................................",
"................................................",
".....  .........................................",
".............      ......  ......  ..  .....   .",
".......    ..        ....   .  ..  ..   ....  ..",
".  .       ..         ...  ..  ..  ...   ..   ..",
".      ......   ....   ..  ......  ....  .   ...",
".      ......   .....  ..   .....  ....     ....",
".      .   ..   .....  ..   .....  .....    ....",
".          ..   .....  ..  ......  .....    ....",
".        ....   .....  ..   .....  ....     ....",
".      ......   ....   ..   ....   ...   ..  ...",
".      ......         ....    .    ...   ..   ..",
".          ..        ......       ...   ....   .",
".          ...     .........    .....  ......  .",
".       ........................................",
"..  ............................................",
"................................................",
"................................................",
"................................................",
"................................................",
"................................................",
"................................................",
"................................................",
"................................................",
"................................................",
"................................................",
"................................................",
"................................................",
"................................................",
"................................................",
"................................................",
"................................................"
};
