/* XPM */
static char *_d71d822d35b489a9f70d035a4959f21[] = {
/* columns rows colors chars-per-pixel */
"32 32 2 1 ",
"  c #2D2D2D",
". c None",
/* pixels */
"................................",
"................................",
"................................",
"................................",
"................................",
"................................",
"................................",
"................................",
"................................",
"................................",
"................................",
"................................",
"......  .     ... .. .  .  ... .",
". .     .      ..  . .  .  ..  .",
".    ....  ...  .  ...  ..    ..",
".    .  .  ...  .  ...  ...  ...",
".      ..  ...  .  ...  ...   ..",
".    ....  ...  .  ...  ..    ..",
".    .. .      ...     ..  ..  .",
".       .    ......   ... .... .",
".    ...........................",
"................................",
"................................",
"................................",
"................................",
"................................",
"................................",
"................................",
"................................",
"................................",
"................................",
"................................"
};
