/* XPM */
static char *_4b00ddf9bf94e13fbf810944880d18d[] = {
/* columns rows colors chars-per-pixel */
"128 128 2 1 ",
"  c #2D2D2D",
". c None",
/* pixels */
"................................................................................................................................",
"................................................................................................................................",
"................................................................................................................................",
"................................................................................................................................",
"................................................................................................................................",
"................................................................................................................................",
"................................................................................................................................",
"................................................................................................................................",
"................................................................................................................................",
"................................................................................................................................",
"................................................................................................................................",
"................................................................................................................................",
"................................................................................................................................",
"................................................................................................................................",
"................................................................................................................................",
"................................................................................................................................",
"................................................................................................................................",
"................................................................................................................................",
"................................................................................................................................",
"................................................................................................................................",
"................................................................................................................................",
"................................................................................................................................",
"................................................................................................................................",
"................................................................................................................................",
"................................................................................................................................",
"................................................................................................................................",
"................................................................................................................................",
"................................................................................................................................",
"................................................................................................................................",
"................................................................................................................................",
"................................................................................................................................",
"................................................................................................................................",
"................................................................................................................................",
"................................................................................................................................",
"................................................................................................................................",
"................................................................................................................................",
"................................................................................................................................",
"................................................................................................................................",
"................................................................................................................................",
"................................................................................................................................",
"................................................................................................................................",
"................................................................................................................................",
"................................................................................................................................",
"................................................................................................................................",
"................. ..............................................................................................................",
"...............   ..............................................................................................................",
".............   ..  ............................................................................................................",
"...........   .......  .........................................................................................................",
".........   ............  ......................................................................................................",
".......   .................   .....                  .............       ....      ....       ...        ............        ...",
".....  .................      .....                    ...........       ....      ....       ....       ............       ....",
"...  ...............          .....                      .........       ....      ....       .....       ..........       .....",
"... ............              .....                       ........       ....      ....       .....        ........        .....",
"...   ......                  .....                        .......       ....      ....       ......       ........       ......",
"...      .                   ......                        .......       ....  ..  ....       .......       ......       .......",
"...      .                .........      ..........         ......       ....  ..  ....       .......        .....       .......",
"...      .            .............      ............       ......       .... .... ....       ........       ....       ........",
"...      .         ................      .............       .....       ..............       .........       ..       .........",
"...      .        .................      .............       .....       ..............       .........        .       .........",
"...      .        .................      ..............      .....       ..............       ..........              ..........",
"...      .        .................      ..............       ....       ..............       ...........            ...........",
"...      .        .......    ......      ..............       ....       ..............       ...........            ...........",
"...               ...        ......      ..............       ....       ..............       ............          ............",
"...                          ......      ..............       ....       ..............       .............        .............",
"...                          ......      ..............       ....       ..............       ............          ............",
"...                          ......      ..............       ....       ..............       ............           ...........",
"...                        ........      ..............       ....       ..............       ...........            ...........",
"...                     ...........      ..............      ......      ..............      ...........              ..........",
"...                 ...............      .............       ......      ..............      ...........               .........",
"...               .................      .............       ......       ............       ..........       ..       .........",
"...               .................      ............       .......       ............       .........        ...       ........",
"...               .................      ..........         .......        ..........        ........        ....        .......",
"...               .................                        .........         .......        .........       ......       .......",
"...               ..........  .....                        .........                        ........        .......       ......",
"...               ......      .....                       ...........                      ........        ........        .....",
"...               ..          .....                      .............                    .........       ..........       .....",
"...                           .....                    ................                  .........        ...........       ....",
"...                           .....                  ....................               .........        ............        ...",
"...                           .....              ..........................           ...........       ..............       ...",
"...                        .....................................................................................................",
"...                    .........................................................................................................",
"...                .............................................................................................................",
"...             ................................................................................................................",
"...         ....................................................................................................................",
".....    .......................................................................................................................",
"................................................................................................................................",
"................................................................................................................................",
"................................................................................................................................",
"................................................................................................................................",
"................................................................................................................................",
"................................................................................................................................",
"................................................................................................................................",
"................................................................................................................................",
"................................................................................................................................",
"................................................................................................................................",
"................................................................................................................................",
"................................................................................................................................",
"................................................................................................................................",
"................................................................................................................................",
"................................................................................................................................",
"................................................................................................................................",
"................................................................................................................................",
"................................................................................................................................",
"................................................................................................................................",
"................................................................................................................................",
"................................................................................................................................",
"................................................................................................................................",
"................................................................................................................................",
"................................................................................................................................",
"................................................................................................................................",
"................................................................................................................................",
"................................................................................................................................",
"................................................................................................................................",
"................................................................................................................................",
"................................................................................................................................",
"................................................................................................................................",
"................................................................................................................................",
"................................................................................................................................",
"................................................................................................................................",
"................................................................................................................................",
"................................................................................................................................",
"................................................................................................................................",
"................................................................................................................................",
"................................................................................................................................",
"................................................................................................................................",
"................................................................................................................................",
"................................................................................................................................",
"................................................................................................................................"
};
