/* XPM */
static char *_ffb6ed17dcc4397939df8b7b0efe109[] = {
/* columns rows colors chars-per-pixel */
"16 16 2 1 ",
"  c #2D2D2D",
". c None",
/* pixels */
"................",
"................",
"................",
"................",
"................",
"................",
".  .   ..... ...",
"   . ..  .. .  .",
"   . ..  .. .  .",
"   .   ..  .....",
". ..............",
"................",
"................",
"................",
"................",
"................"
};
